
// NOTES for Mario main theme melody
int MarioMainThemeMelody[] = {
  NOTE_E7, NOTE_E7, 0, NOTE_E7,
  0, NOTE_C7, NOTE_E7, 0,
  NOTE_G7, 0, 0,  0,
  NOTE_G6, 0, 0, 0,

  NOTE_C7, 0, 0, NOTE_G6,
  0, 0, NOTE_E6, 0,
  0, NOTE_A6, 0, NOTE_B6,
  0, NOTE_AS6, NOTE_A6, 0,

  NOTE_G6, NOTE_E7, NOTE_G7,
  NOTE_A7, 0, NOTE_F7, NOTE_G7,
  0, NOTE_E7, 0, NOTE_C7,
  NOTE_D7, NOTE_B6, 0, 0,

  NOTE_C7, 0, 0, NOTE_G6,
  0, 0, NOTE_E6, 0,
  0, NOTE_A6, 0, NOTE_B6,
  0, NOTE_AS6, NOTE_A6, 0,

  NOTE_G6, NOTE_E7, NOTE_G7,
  NOTE_A7, 0, NOTE_F7, NOTE_G7,
  0, NOTE_E7, 0, NOTE_C7,
  NOTE_D7, NOTE_B6, 0, 0
};

// NOTE DURATIONS for Mario main them tempo
int MarioMainThemeNoteDurations[] = {
  12, 12, 12, 12,
  12, 12, 12, 12,
  12, 12, 12, 12,
  12, 12, 12, 12,

  12, 12, 12, 12,
  12, 12, 12, 12,
  12, 12, 12, 12,
  12, 12, 12, 12,

  9, 9, 9,
  12, 12, 12, 12,
  12, 12, 12, 12,
  12, 12, 12, 12,

  12, 12, 12, 12,
  12, 12, 12, 12,
  12, 12, 12, 12,
  12, 12, 12, 12,

  9, 9, 9,
  12, 12, 12, 12,
  12, 12, 12, 12,
  12, 12, 12, 12,
};


int TetrisMelody[] = {
  NOTE_E5, NOTE_E3, NOTE_B4, NOTE_C5, NOTE_D5, NOTE_E5, NOTE_D5, NOTE_C5, 
  NOTE_B4, NOTE_A4, NOTE_A3, NOTE_A4, NOTE_C5, NOTE_E5, NOTE_A3, NOTE_D5,
  NOTE_C5, NOTE_B4, NOTE_E4, NOTE_G4, NOTE_C5, NOTE_D5, NOTE_E3, NOTE_E5,
  NOTE_E3, NOTE_C5, NOTE_A3, NOTE_A4, NOTE_A3, NOTE_A4, NOTE_A3, NOTE_B2, 
  NOTE_C3, NOTE_D3, NOTE_D5, NOTE_F5, NOTE_A5, NOTE_C5, NOTE_C5, NOTE_G5, 
  NOTE_F5, NOTE_E5, NOTE_C3, 0, NOTE_C5, NOTE_E5, NOTE_A4, NOTE_G4, NOTE_D5,
  NOTE_C5, NOTE_B4, NOTE_E4, NOTE_B4, NOTE_C5, NOTE_D5, NOTE_G4, NOTE_E5, 
  NOTE_G4, NOTE_C5, NOTE_E4, NOTE_A4, NOTE_E3, NOTE_A4, 0, 
};

// Note durations
int TetrisNoteDurations[] = {
  8,8,8,8,8,16,16,8,8,8,8,8,8,8,8,8,
  8,8,8,8,8,8,8,8,8,8,8,8,8,8,8,8,8,
  8,4,8,8,16,16,8,8,8,8,8,8,8,16,16,8,
  8,8,8,8,8,8,8,8,8,8,8,8,8,4,4,8,
};

//##############**"HE IS A PIRATE" Theme song of Pirates of caribbean**##############//
int PiratesMelody[] = {
NOTE_D4, NOTE_D4, NOTE_D4, NOTE_D4, NOTE_D4, NOTE_D4, NOTE_D4, NOTE_D4,
NOTE_D4, NOTE_D4, NOTE_D4, NOTE_D4, NOTE_D4, NOTE_D4, NOTE_D4, NOTE_D4, 
NOTE_D4, NOTE_D4, NOTE_D4, NOTE_D4, NOTE_D4, NOTE_D4, NOTE_D4, NOTE_D4,  
NOTE_A3, NOTE_C4, NOTE_D4, NOTE_D4, NOTE_D4, NOTE_E4, NOTE_F4, NOTE_F4, 
NOTE_F4, NOTE_G4, NOTE_E4, NOTE_E4, NOTE_D4, NOTE_C4, NOTE_C4, NOTE_D4,
0, NOTE_A3, NOTE_C4, NOTE_B3, NOTE_D4, NOTE_B3, NOTE_E4, NOTE_F4,
NOTE_F4, NOTE_C4, NOTE_C4, NOTE_C4, NOTE_C4, NOTE_D4, NOTE_C4,
NOTE_D4, 0, 0, NOTE_A3, NOTE_C4, NOTE_D4, NOTE_D4, NOTE_D4, NOTE_F4,
NOTE_G4, NOTE_G4, NOTE_G4, NOTE_A4, NOTE_A4, NOTE_A4, NOTE_A4, NOTE_G4,
NOTE_A4, NOTE_D4, 0, NOTE_D4, NOTE_E3, NOTE_F4, NOTE_F4, NOTE_G4, NOTE_A4, 
NOTE_D4, 0, NOTE_D4, NOTE_F4, NOTE_E4, NOTE_E4, NOTE_F4, NOTE_D4
};

int PiratesNoteDuration[] = {
4,8,4,8,4,8,8,8,8,4,8,4,8,4,8,8,8,8,4,8,4,8,
4,8,8,8,8,4,4,8,8,4,4,8,8,4,4,8,8,
8,4,8,8,8,4,4,8,8,4,4,8,8,4,4,8,4,
4,8,8,8,8,4,4,8,8,4,4,8,8,4,4,8,8,
8,4,8,8,8,4,4,4,8,4,8,8,8,4,4,8,8
};
//###########End of He is a Pirate song#############//

// Jingle Bells

int JingleMelody[] = {
  NOTE_E5, NOTE_E5, NOTE_E5,
  NOTE_E5, NOTE_E5, NOTE_E5,
  NOTE_E5, NOTE_G5, NOTE_C5, NOTE_D5,
  NOTE_E5,
  NOTE_F5, NOTE_F5, NOTE_F5, NOTE_F5,
  NOTE_F5, NOTE_E5, NOTE_E5, NOTE_E5, NOTE_E5,
  NOTE_E5, NOTE_D5, NOTE_D5, NOTE_E5,
  NOTE_D5, NOTE_G5
};

int JingleNoteDuration[] = {
  8, 8, 4,
  8, 8, 4,
  8, 8, 8, 8,
  2,
  8, 8, 8, 8,
  8, 8, 8, 16, 16,
  8, 8, 8, 8,
  4, 4
};

// We wish you a merry Christmas

int WishMelody[] = {
  NOTE_B3, 
  NOTE_F4, NOTE_F4, NOTE_G4, NOTE_F4, NOTE_E4,
  NOTE_D4, NOTE_D4, NOTE_D4,
  NOTE_G4, NOTE_G4, NOTE_A4, NOTE_G4, NOTE_F4,
  NOTE_E4, NOTE_E4, NOTE_E4,
  NOTE_A4, NOTE_A4, NOTE_B4, NOTE_A4, NOTE_G4,
  NOTE_F4, NOTE_D4, NOTE_B3, NOTE_B3,
  NOTE_D4, NOTE_G4, NOTE_E4,
  NOTE_F4
};

int WishNoteDuration[] = {
  4,
  4, 8, 8, 8, 8,
  4, 4, 4,
  4, 8, 8, 8, 8,
  4, 4, 4,
  4, 8, 8, 8, 8,
  4, 4, 8, 8,
  4, 4, 4,
  2
};

// Santa Claus is coming to town

int SantaMelody[] = {
  NOTE_G4,
  NOTE_E4, NOTE_F4, NOTE_G4, NOTE_G4, NOTE_G4,
  NOTE_A4, NOTE_B4, NOTE_C5, NOTE_C5, NOTE_C5,
  NOTE_E4, NOTE_F4, NOTE_G4, NOTE_G4, NOTE_G4,
  NOTE_A4, NOTE_G4, NOTE_F4, NOTE_F4,
  NOTE_E4, NOTE_G4, NOTE_C4, NOTE_E4,
  NOTE_D4, NOTE_F4, NOTE_B3,
  NOTE_C4
};

int SantaNoteDuration[] = {
  8,
  8, 8, 4, 4, 4,
  8, 8, 4, 4, 4,
  8, 8, 4, 4, 4,
  8, 8, 4, 2,
  4, 4, 4, 4,
  4, 2, 4,
  1
};

// NOTES for my melody
int MyMelody[] = {
  NOTE_C1, NOTE_C2, NOTE_C3, NOTE_C4,
  NOTE_C5, NOTE_C6, NOTE_C7, NOTE_C8 
};

// NOTE DURATIONS for Mario main them tempo
int MyNoteDurations[] = {
  8, 8, 8, 8,
  8, 8, 8, 8
};

// NOTES for my melody
int MyMelody2[] = {
  NOTE_C5, NOTE_C5
};

// NOTE DURATIONS for Mario main them tempo
int MyNoteDurations2[] = {
  4, 4
};

// NOTES for my melody
int MySadMelody[] = {
  NOTE_C5, NOTE_C2
};

// NOTE DURATIONS for Mario main them tempo
int MySadNoteDurations[] = {
  4, 1
};